<svg xmlns="http://www.w3.org/2000/svg" viewBox="0 0 500 500"><g id="freepik--background-simple--inject-17"><path d="M250.9,68.35c-77.07,34.68-7.1,96.49-51.61,130.15S33.78,193.24,79.91,280.65c54.19,102.68,291.46,88.42,342.62-37.52S328,33.67,250.9,68.35Z" style="fill:#27B29B"></path><path d="M250.9,68.35c-77.07,34.68-7.1,96.49-51.61,130.15S33.78,193.24,79.91,280.65c54.19,102.68,291.46,88.42,342.62-37.52S328,33.67,250.9,68.35Z" style="fill:#fff;opacity:0.9"></path></g><g id="freepik--Shadow--inject-17"><ellipse id="freepik--path--inject-17" cx="250" cy="416.24" rx="193.89" ry="11.32" style="fill:#f5f5f5"></ellipse></g><g id="freepik--plants-2--inject-17"><path d="M354.37,396c7-5.56,9.95-3.9,14.37-4.92s5.91-.68,5.91-.68l1.09,6.85-22.75.92Z" style="fill:#263238"></path><path d="M354.37,396c7-5.56,9.95-3.9,14.37-4.92s5.91-.68,5.91-.68l1.09,6.85-22.75.92Z" style="fill:#fff;isolation:isolate;opacity:0.2"></path><path d="M430.33,391.82s7.52-.54,8.7,0,8.11,6.33,8.11,6.33H424.79Z" style="fill:#263238"></path><path d="M430.33,391.82s7.52-.54,8.7,0,8.11,6.33,8.11,6.33H424.79Z" style="fill:#fff;isolation:isolate;opacity:0.2"></path><path d="M377.54,382.66s-1.61-6.55-3.72-7.69,0,6.56,0,6.56-4.74-7.77-7.38-7.94,4.46,9.07,4.46,9.07-5-3.83-6.54-2.64,5.24,4.67,5.24,4.67-5.73-2.45-5.85,0,4.27,2.85,4.27,2.85-5.38-.12-4.27,2.79,7.15,3.2,7.15,3.2Z" style="fill:#27B29B"></path><path d="M418.26,386.92c0-.44-3.93-5.58-1.44-7.16s1.71,7.23,2.76,4.93.27-9.15,3.56-8.49-2.77,10.65-1.32,8.49,5.41-5.86,7-4.67-5.67,6.9-5.67,6.9,6.73-2.72,7.52,0-9.63,2-9.63,2Z" style="fill:#27B29B"></path><path d="M440.46,398.1h-89s10.78-.58,15.79-7.29,6.95-5.89,10.25-10.25v-32.4h36.48v32.4c5,9.49,14.59,6.67,17.66,10.25S440.46,398.1,440.46,398.1Z" style="fill:#263238"></path><path d="M440.46,398.1h-89s10.78-.58,15.79-7.29,6.95-5.89,10.25-10.25v-32.4h36.48v32.4c5,9.49,14.59,6.67,17.66,10.25S440.46,398.1,440.46,398.1Z" style="fill:#fff;isolation:isolate;opacity:0.6000000000000001"></path><path d="M441.8,396c-2.17-.79-3.8.42-7.35.87-3.18.39-3.34-1.09-5.46-1a74.73,74.73,0,0,0-7.56-3.85c-2.37-.79-9.89-1.58-12.07-3.07s-4.94-6.29-4.94-6.29,1.18,6.39-2.18,10.87a8.76,8.76,0,0,0-1.28,2.19c-3.32-.25-2.33-.08-5.84.16a16.93,16.93,0,0,0-3.36.6,13.28,13.28,0,0,0,1.38-5.42c.4-5.57,1.19-7.45,1.19-7.45s-9.25-1-13.13,3.33c-2.53,2.8-5.52,6.69-8.94,9.06a32.81,32.81,0,0,1-5.82.76,41.62,41.62,0,0,1-10.88-.78c-2.86-.67-11.47,2.12-11.47,2.12l-4.35,1.44H452.48S444,396.77,441.8,396Z" style="fill:#263238"></path><path d="M410.88,378.57a41.19,41.19,0,0,1-1.48-8.4c-.21-2.85-.15-5.7-.22-8.55l-.2-13.46h.9l-.2,13.46c0,2.85-.16,5.7,0,8.53A41.34,41.34,0,0,0,410.88,378.57Z" style="opacity:0.2"></path><polygon points="402.37 348.16 401.91 371.06 401.45 348.16 402.37 348.16" style="opacity:0.2"></polygon><path d="M382.6,348.16l-.22,15.43-.12,8.8a24.83,24.83,0,0,1-.26,4.39,6.22,6.22,0,0,1-2.12,3.77,6.17,6.17,0,0,0,2-3.79,25.45,25.45,0,0,0,.13-4.37l-.13-8.8-.22-15.43Z" style="opacity:0.2"></path><path d="M391.26,348.16l-.21,14.2c-.07,2.83,0,5.64-.19,8.48A31.54,31.54,0,0,1,389,379.1a31.73,31.73,0,0,0,1.62-8.27c.08-2.81-.05-5.65-.06-8.47l-.21-14.2Z" style="opacity:0.2"></path><path d="M396.11,359.45c.21,3,.22,6,.25,9s0,6-.25,9c-.21-3-.22-6-.25-9S395.91,362.45,396.11,359.45Z" style="opacity:0.2"></path><path d="M405.47,372.5c.72,2,1.46,3.89,2.33,5.76.42.94.9,1.85,1.39,2.75a27.53,27.53,0,0,0,1.69,2.6,16.34,16.34,0,0,1-3.54-5.14,26,26,0,0,1-1.12-2.93A19.56,19.56,0,0,1,405.47,372.5Z" style="opacity:0.2"></path><path d="M386.22,363.27a26.38,26.38,0,0,1,.42,3.76,34.24,34.24,0,0,1-.05,3.79,25.09,25.09,0,0,1-.63,3.75,12.88,12.88,0,0,1-1.45,3.49,23.73,23.73,0,0,0,1.58-7.28c.13-1.24.15-2.49.17-3.74S386.26,364.53,386.22,363.27Z" style="opacity:0.2"></path><path d="M441.8,396c-2.17-.79-3.8.42-7.35.87-3.18.39-3.34-1.09-5.46-1a74.73,74.73,0,0,0-7.56-3.85c-2.37-.79-9.89-1.58-12.07-3.07s-4.94-6.29-4.94-6.29,1.18,6.39-2.18,10.87a8.76,8.76,0,0,0-1.28,2.19c-3.32-.25-2.33-.08-5.84.16a16.93,16.93,0,0,0-3.36.6,13.28,13.28,0,0,0,1.38-5.42c.4-5.57,1.19-7.45,1.19-7.45s-9.25-1-13.13,3.33c-2.53,2.8-5.52,6.69-8.94,9.06a32.81,32.81,0,0,1-5.82.76,41.62,41.62,0,0,1-10.88-.78c-2.86-.67-11.47,2.12-11.47,2.12l-4.35,1.44H452.48S444,396.77,441.8,396Z" style="fill:#fff;isolation:isolate;opacity:0.2"></path><path d="M135.86,332.8s-8.29,1.87-3.75,9.44C132.11,342.24,140.58,340.9,135.86,332.8Z" style="fill:#27B29B"></path><path d="M117.52,338.39s-1.51,7.33,3.49,8.29C121,346.68,124.53,340.72,117.52,338.39Z" style="fill:#27B29B"></path><path d="M139.3,341.59s-5.54,2.88-3,7.37C136.33,349,141.69,348.13,139.3,341.59Z" style="fill:#27B29B"></path><path d="M137.78,353s.16-5.34,6.82-1.61C144.6,351.36,143.59,357.26,137.78,353Z" style="fill:#27B29B"></path><path d="M113,348.16s5.22-1.18,5.94,2.61C118.89,350.77,114.52,353.88,113,348.16Z" style="fill:#27B29B"></path><path d="M138.66,362.27s.5-4.49,6.47-3.16C145.13,359.11,143.17,365.41,138.66,362.27Z" style="fill:#27B29B"></path><path d="M140.79,366.92a4.28,4.28,0,0,1,6.16,2S141.89,371.67,140.79,366.92Z" style="fill:#27B29B"></path><path d="M109.31,360.31s6-2.76,7.53,2.84C116.84,363.15,111.3,365.82,109.31,360.31Z" style="fill:#27B29B"></path><path d="M109.31,370.56s1.67-4.7,6.72-2.09C116,368.47,113.9,374.45,109.31,370.56Z" style="fill:#27B29B"></path><path d="M135.86,332.8s-8.29,1.87-3.75,9.44C132.11,342.24,140.58,340.9,135.86,332.8Z" style="fill:#fff;isolation:isolate;opacity:0.2"></path><path d="M117.52,338.39s-1.51,7.33,3.49,8.29C121,346.68,124.53,340.72,117.52,338.39Z" style="fill:#fff;isolation:isolate;opacity:0.2"></path><path d="M139.3,341.59s-5.54,2.88-3,7.37C136.33,349,141.69,348.13,139.3,341.59Z" style="fill:#fff;isolation:isolate;opacity:0.2"></path><path d="M137.78,353s.16-5.34,6.82-1.61C144.6,351.36,143.59,357.26,137.78,353Z" style="fill:#fff;isolation:isolate;opacity:0.2"></path><path d="M113,348.16s5.22-1.18,5.94,2.61C118.89,350.77,114.52,353.88,113,348.16Z" style="fill:#fff;isolation:isolate;opacity:0.2"></path><path d="M138.66,362.27s.5-4.49,6.47-3.16C145.13,359.11,143.17,365.41,138.66,362.27Z" style="fill:#fff;isolation:isolate;opacity:0.2"></path><path d="M140.79,366.92a4.28,4.28,0,0,1,6.16,2S141.89,371.67,140.79,366.92Z" style="fill:#fff;isolation:isolate;opacity:0.2"></path><path d="M109.31,360.31s6-2.76,7.53,2.84C116.84,363.15,111.3,365.82,109.31,360.31Z" style="fill:#fff;isolation:isolate;opacity:0.2"></path><path d="M109.31,370.56s1.67-4.7,6.72-2.09C116,368.47,113.9,374.45,109.31,370.56Z" style="fill:#fff;isolation:isolate;opacity:0.2"></path><path d="M112.83,368.74a45.2,45.2,0,0,1,8.9-1.13,39.14,39.14,0,0,0-9-5.69.44.44,0,0,1-.22-.58.43.43,0,0,1,.57-.22c6.91,3,12.58,8.75,14.49,10.82.08-3.22.23-6.58.52-10l0,0c0-.07-2.7-4.51-5.35-10.16h-.38a16.56,16.56,0,0,1-5.1-1.06.43.43,0,1,1,.28-.82,15.8,15.8,0,0,0,4.8,1,78.9,78.9,0,0,1-3-7.61.43.43,0,0,1,.27-.55.44.44,0,0,1,.56.28,109.1,109.1,0,0,0,8.13,17.44c.79-8.37,2.38-16.79,5.33-23.45a.44.44,0,0,1,.58-.22.43.43,0,0,1,.22.57c-2.86,6.45-4.42,14.57-5.22,22.69a31.42,31.42,0,0,1,4.85-5,.36.36,0,0,1,0-.23,31.48,31.48,0,0,1,2.92-8.14.43.43,0,0,1,.59-.18.42.42,0,0,1,.18.59,32.79,32.79,0,0,0-2.71,7.23,15.14,15.14,0,0,1,4.21-2.31.44.44,0,0,1,.24.84s-5,1.53-10.4,8.83c-.27,3.17-.43,6.31-.51,9.34a25.19,25.19,0,0,1,12.13-10.21.43.43,0,0,1,.56.26.44.44,0,0,1-.26.56,25.39,25.39,0,0,0-6.87,4.18,32.35,32.35,0,0,1,8.86,1.61.44.44,0,0,1,.27.56.43.43,0,0,1-.41.29l-.15,0a33,33,0,0,0-9.52-1.6,20.74,20.74,0,0,0-4.66,6.33,205,205,0,0,0,.88,22.59.43.43,0,0,1-.38.48h-.05a.44.44,0,0,1-.44-.39,205,205,0,0,1-.88-22.47,50.71,50.71,0,0,0-4.86-4.77,50,50,0,0,0-9.66,1.13l-.12,0a.44.44,0,0,1-.12-.86Z" style="fill:#27B29B"></path><path d="M107.74,399.54h41.53l-4.8-2.58c-2.54-1.38-5-1.76-7.87-2.33a4.64,4.64,0,0,1-1.37-.42,7,7,0,0,1-1.15-.87,7.17,7.17,0,0,0-6.47-1.26,2.48,2.48,0,0,0-1,.48c-.38.33-.65.87-1.16.92s-.83-.32-1.28-.31-1,.61-1.51.79-1.35-.19-1.94.07a4.68,4.68,0,0,0-.87.74c-1.36,1.06-3.17-.62-4.75-.1a14.3,14.3,0,0,0-2.88,1.77C110.73,397.44,109.23,398.48,107.74,399.54Z" style="fill:#263238"></path><path d="M107.74,399.54h41.53l-4.8-2.58c-2.54-1.38-5-1.76-7.87-2.33a4.64,4.64,0,0,1-1.37-.42,7,7,0,0,1-1.15-.87,7.17,7.17,0,0,0-6.47-1.26,2.48,2.48,0,0,0-1,.48c-.38.33-.65.87-1.16.92s-.83-.32-1.28-.31-1,.61-1.51.79-1.35-.19-1.94.07a4.68,4.68,0,0,0-.87.74c-1.36,1.06-3.17-.62-4.75-.1a14.3,14.3,0,0,0-2.88,1.77C110.73,397.44,109.23,398.48,107.74,399.54Z" style="fill:#fff;isolation:isolate;opacity:0.2"></path><path d="M175.53,332.83c0,.16-6.09,5.4,1.29,11.44C176.79,344.43,184.18,339.38,175.53,332.83Z" style="fill:#27B29B"></path><path d="M161.8,345.82c.09,0,1.36,7.14,6.32,6.65C168.21,352.54,169.28,345.39,161.8,345.82Z" style="fill:#27B29B"></path><path d="M183.4,350.14c0,.08,4.91-2.79-.29-9.31C183.13,340.91,179.41,346,183.4,350.14Z" style="fill:#27B29B"></path><path d="M192.08,350.31c-7.61-2.26-5.9,4-6,4C193,357.72,192.15,350.35,192.08,350.31Z" style="fill:#27B29B"></path><path d="M167.34,357c-1.78-3.48-6.44-.87-6.44-.92C164,361,167.34,357.11,167.34,357Z" style="fill:#27B29B"></path><path d="M194.93,359.68c-6.09-.11-5.6,5.32-5.65,5.32C194.34,368,195,359.72,194.93,359.68Z" style="fill:#27B29B"></path><path d="M192.11,370.24c1.6,5.71,6.34,1.59,6.35,1.53C195.62,366.63,192.1,370.3,192.11,370.24Z" style="fill:#27B29B"></path><path d="M160,367.93c2.72,4.83,7.84,1.76,7.85,1.67C165.52,364.33,160,368,160,367.93Z" style="fill:#27B29B"></path><path d="M161,377.42c4.72,3.59,6.65-2.37,6.6-2.43C162.38,372.89,161,377.45,161,377.42Z" style="fill:#27B29B"></path><g style="isolation:isolate;opacity:0.2"><path d="M175.53,332.83c0,.16-6.09,5.4,1.29,11.44C176.79,344.43,184.18,339.38,175.53,332.83Z" style="fill:#fff"></path><path d="M161.8,345.82c.09,0,1.36,7.14,6.32,6.65C168.21,352.54,169.28,345.39,161.8,345.82Z" style="fill:#fff"></path><path d="M183.4,350.14c0,.08,4.91-2.79-.29-9.31C183.13,340.91,179.41,346,183.4,350.14Z" style="fill:#fff"></path><path d="M192.08,350.31c-7.61-2.26-5.9,4-6,4C193,357.72,192.15,350.35,192.08,350.31Z" style="fill:#fff"></path><path d="M167.34,357c-1.78-3.48-6.44-.87-6.44-.92C164,361,167.34,357.11,167.34,357Z" style="fill:#fff"></path><path d="M194.93,359.68c-6.09-.11-5.6,5.32-5.65,5.32C194.34,368,195,359.72,194.93,359.68Z" style="fill:#fff"></path><path d="M192.11,370.24c1.6,5.71,6.34,1.59,6.35,1.53C195.62,366.63,192.1,370.3,192.11,370.24Z" style="fill:#fff"></path><path d="M160,367.93c2.72,4.83,7.84,1.76,7.85,1.67C165.52,364.33,160,368,160,367.93Z" style="fill:#fff"></path><path d="M161,377.42c4.72,3.59,6.65-2.37,6.6-2.43C162.38,372.89,161,377.45,161,377.42Z" style="fill:#fff"></path></g><path d="M163.68,369a30.14,30.14,0,0,1,9.54,4.62,59.28,59.28,0,0,0-8.8,1.92.42.42,0,0,0,.16.82l.12,0a64.24,64.24,0,0,1,9.58-1.93,33.26,33.26,0,0,1,5.08,4.8,142,142,0,0,1-1,17.25h.88a141,141,0,0,0,1-17.55,34.31,34.31,0,0,1,4.23-7.72,27,27,0,0,1,9.64.49h.15a.5.5,0,0,0,.38-.43.57.57,0,0,0-.33-.66,26.6,26.6,0,0,0-9-.53,35,35,0,0,1,6.1-6.23.6.6,0,0,0,.15-.74.41.41,0,0,0-.61-.2,38.42,38.42,0,0,0-10.73,13.81c-.06-3.41-.24-6.93-.51-10.47,3.91-9,7.82-12.51,8-12.49a.57.57,0,0,0,.11-.72.41.41,0,0,0-.61-.19,17,17,0,0,0-3.33,3.84,80.13,80.13,0,0,1,.16-9,.59.59,0,0,0-.4-.61.41.41,0,0,0-.48.41,71.45,71.45,0,0,0-.09,10,.51.51,0,0,0,.1.25,56.71,56.71,0,0,0-3.57,6.66c-.75-9.1-2.22-18.15-2.89-26.1a.55.55,0,0,0-.49-.51.4.4,0,0,0-.41.47c.7,8.16,2.23,17.45,3,26.76-2-2.71-7.76-9.82-12.71-15.74a.44.44,0,0,0-.62-.08.43.43,0,0,0-.06.61c1.74,2.14,3.61,4.37,5.38,6.52a16.18,16.18,0,0,1-4.9.26.42.42,0,0,0-.46.4.45.45,0,0,0,.42.46,16.33,16.33,0,0,0,5.2-.25,2.66,2.66,0,0,0,.36-.11c4.13,5,7.43,9.5,7.49,9.55l0,0c.28,3.77.45,7.5.49,11.1-1.93-2.24-8.11-7.8-15.44-9.59a.44.44,0,0,0-.54.29A.42.42,0,0,0,163.68,369Z" style="fill:#27B29B"></path><path d="M200,399.54H158.47c2.22-1.19,4.44-2.38,6.64-3.58,1.09-.59,3-2.13,4.19-2.16.87,0,2,.91,3.06,1a6.07,6.07,0,0,0,3.46-.8,6.81,6.81,0,0,1,1.84-1c1.45-.32,2.86.87,4.33.74,1.16-.1,2.18-1,3.33-.9,1.46.12,2.41,1.76,3.85,2,.59.1,1.19-.06,1.78,0a5.89,5.89,0,0,1,2.57,1.46c1.13.84,2.31.65,3.48,1.14A17.93,17.93,0,0,1,200,399.54Z" style="fill:#263238"></path><path d="M200,399.54H158.47c2.22-1.19,4.44-2.38,6.64-3.58,1.09-.59,3-2.13,4.19-2.16.87,0,2,.91,3.06,1a6.07,6.07,0,0,0,3.46-.8,6.81,6.81,0,0,1,1.84-1c1.45-.32,2.86.87,4.33.74,1.16-.1,2.18-1,3.33-.9,1.46.12,2.41,1.76,3.85,2,.59.1,1.19-.06,1.78,0a5.89,5.89,0,0,1,2.57,1.46c1.13.84,2.31.65,3.48,1.14A17.93,17.93,0,0,1,200,399.54Z" style="fill:#fff;isolation:isolate;opacity:0.2"></path><path d="M75.47,340.83c0,.14-6.09,4.72,1.29,10C76.73,351,84.12,346.55,75.47,340.83Z" style="fill:#27B29B"></path><path d="M61.74,352.18c.09,0,1.36,6.24,6.33,5.82C68.15,358.06,69.22,351.81,61.74,352.18Z" style="fill:#27B29B"></path><path d="M83.34,356c0,.07,4.91-2.44-.29-8.14C83.07,347.89,79.35,352.37,83.34,356Z" style="fill:#27B29B"></path><path d="M92,356.11c-7.61-2-5.9,3.49-6,3.47C93,362.59,92.09,356.14,92,356.11Z" style="fill:#27B29B"></path><path d="M67.28,362c-1.78-3-6.44-.76-6.44-.8C63.92,365.43,67.28,362.06,67.28,362Z" style="fill:#27B29B"></path><path d="M94.87,364.3c-6.09-.1-5.6,4.65-5.65,4.65C94.28,371.53,95,364.34,94.87,364.3Z" style="fill:#27B29B"></path><path d="M92.05,373.53c1.6,5,6.34,1.39,6.35,1.34C95.56,370.38,92,373.58,92.05,373.53Z" style="fill:#27B29B"></path><path d="M60,371.51c2.72,4.22,7.84,1.54,7.85,1.46C65.46,368.36,59.94,371.58,60,371.51Z" style="fill:#27B29B"></path><path d="M60.93,379.81c4.72,3.14,6.65-2.08,6.6-2.13C62.32,375.84,61,379.84,60.93,379.81Z" style="fill:#27B29B"></path><g style="isolation:isolate;opacity:0.2"><path d="M75.47,340.83c0,.14-6.09,4.72,1.29,10C76.73,351,84.12,346.55,75.47,340.83Z" style="fill:#fff"></path><path d="M61.74,352.18c.09,0,1.36,6.24,6.33,5.82C68.15,358.06,69.22,351.81,61.74,352.18Z" style="fill:#fff"></path><path d="M83.34,356c0,.07,4.91-2.44-.29-8.14C83.07,347.89,79.35,352.37,83.34,356Z" style="fill:#fff"></path><path d="M92,356.11c-7.61-2-5.9,3.49-6,3.47C93,362.59,92.09,356.14,92,356.11Z" style="fill:#fff"></path><path d="M67.28,362c-1.78-3-6.44-.76-6.44-.8C63.92,365.43,67.28,362.06,67.28,362Z" style="fill:#fff"></path><path d="M94.87,364.3c-6.09-.1-5.6,4.65-5.65,4.65C94.28,371.53,95,364.34,94.87,364.3Z" style="fill:#fff"></path><path d="M92.05,373.53c1.6,5,6.34,1.39,6.35,1.34C95.56,370.38,92,373.58,92.05,373.53Z" style="fill:#fff"></path><path d="M60,371.51c2.72,4.22,7.84,1.54,7.85,1.46C65.46,368.36,59.94,371.58,60,371.51Z" style="fill:#fff"></path><path d="M60.93,379.81c4.72,3.14,6.65-2.08,6.6-2.13C62.32,375.84,61,379.84,60.93,379.81Z" style="fill:#fff"></path></g><path d="M63.62,372.4a32.18,32.18,0,0,1,9.54,4.05,64.68,64.68,0,0,0-8.8,1.67.37.37,0,0,0-.28.47.45.45,0,0,0,.44.25l.12,0a73.63,73.63,0,0,1,9.58-1.69,31.72,31.72,0,0,1,5.08,4.2,108.75,108.75,0,0,1-1,15.08h.88a107.94,107.94,0,0,0,1-15.34,29.21,29.21,0,0,1,4.23-6.75,30.61,30.61,0,0,1,9.64.43h.15a.46.46,0,0,0,.38-.37.49.49,0,0,0-.33-.58,30.33,30.33,0,0,0-9-.46,33.36,33.36,0,0,1,6.1-5.45.48.48,0,0,0,.15-.64.44.44,0,0,0-.61-.18,35,35,0,0,0-10.73,12.07c-.06-3-.24-6.06-.51-9.15,3.91-7.91,7.82-10.93,8-10.92a.45.45,0,0,0,.11-.63.44.44,0,0,0-.61-.16,15.77,15.77,0,0,0-3.33,3.35,61.4,61.4,0,0,1,.16-7.87.52.52,0,0,0-.4-.53.4.4,0,0,0-.48.36,54.64,54.64,0,0,0-.09,8.76.44.44,0,0,0,.1.22,47.05,47.05,0,0,0-3.57,5.82c-.75-8-2.22-15.87-2.89-22.82a.53.53,0,0,0-.49-.45.38.38,0,0,0-.41.42c.7,7.13,2.23,15.26,3,23.39-2-2.36-7.76-8.58-12.71-13.76a.49.49,0,0,0-.62-.07.35.35,0,0,0-.06.54c1.74,1.87,3.61,3.81,5.38,5.69a17.79,17.79,0,0,1-4.9.23.42.42,0,0,0-.46.35.41.41,0,0,0,.42.4,18.64,18.64,0,0,0,5.2-.21l.36-.1c4.13,4.39,7.43,8.3,7.49,8.35l0,0c.28,3.29.45,6.56.49,9.7a34.4,34.4,0,0,0-15.44-8.38.45.45,0,0,0-.54.25A.36.36,0,0,0,63.62,372.4Z" style="fill:#27B29B"></path><path d="M99.94,399.54H58.41c2.22-1.19,4.44-2.38,6.64-3.58,1.09-.59,3-2.13,4.19-2.16.87,0,2.05.91,3.06,1a6.07,6.07,0,0,0,3.46-.8,6.81,6.81,0,0,1,1.84-1c1.45-.32,2.86.87,4.33.74,1.16-.1,2.18-1,3.33-.9,1.46.12,2.41,1.76,3.85,2,.59.1,1.19-.06,1.78,0a5.89,5.89,0,0,1,2.57,1.46c1.13.84,2.31.65,3.48,1.14A17.93,17.93,0,0,1,99.94,399.54Z" style="fill:#263238"></path><path d="M99.94,399.54H58.41c2.22-1.19,4.44-2.38,6.64-3.58,1.09-.59,3-2.13,4.19-2.16.87,0,2.05.91,3.06,1a6.07,6.07,0,0,0,3.46-.8,6.81,6.81,0,0,1,1.84-1c1.45-.32,2.86.87,4.33.74,1.16-.1,2.18-1,3.33-.9,1.46.12,2.41,1.76,3.85,2,.59.1,1.19-.06,1.78,0a5.89,5.89,0,0,1,2.57,1.46c1.13.84,2.31.65,3.48,1.14A17.93,17.93,0,0,1,99.94,399.54Z" style="fill:#fff;isolation:isolate;opacity:0.2"></path></g><g id="freepik--plant-1--inject-17"><path d="M252.65,381.76a51.76,51.76,0,0,0-10.17-1.3,45,45,0,0,1,10.24-6.5.5.5,0,1,0-.4-.92c-7.9,3.46-14.38,10-16.57,12.37-.08-3.67-.26-7.52-.58-11.39l0,0c.05-.07,3.09-5.16,6.11-11.61h.44a18.7,18.7,0,0,0,5.82-1.21.5.5,0,0,0,.32-.63.5.5,0,0,0-.64-.31,18,18,0,0,1-5.48,1.15,89,89,0,0,0,3.49-8.69.5.5,0,0,0-.31-.63.51.51,0,0,0-.64.31,123,123,0,0,1-9.3,19.94c-.9-9.56-2.71-19.19-6.09-26.8a.51.51,0,0,0-.66-.26.5.5,0,0,0-.25.66c3.26,7.37,5.05,16.66,6,25.94a35.81,35.81,0,0,0-5.54-5.71.39.39,0,0,0,0-.26,36.06,36.06,0,0,0-3.34-9.31.5.5,0,0,0-.68-.2.5.5,0,0,0-.21.67,37.55,37.55,0,0,1,3.11,8.26,17,17,0,0,0-4.81-2.63.49.49,0,0,0-.62.34.5.5,0,0,0,.34.62c.06,0,5.77,1.75,11.88,10.09.31,3.62.5,7.21.59,10.68a28.78,28.78,0,0,0-13.86-11.68.5.5,0,0,0-.64.3.49.49,0,0,0,.3.64,29.13,29.13,0,0,1,7.85,4.78,37,37,0,0,0-10.13,1.84.51.51,0,0,0-.31.64.5.5,0,0,0,.47.33l.17,0a37,37,0,0,1,10.88-1.82,23.41,23.41,0,0,1,5.32,7.22,232.49,232.49,0,0,1-1,25.82.5.5,0,0,0,.44.55h.06a.5.5,0,0,0,.49-.45,230.86,230.86,0,0,0,1-25.68,57.92,57.92,0,0,1,5.56-5.46c.5,0,7.12.2,11,1.3l.14,0a.5.5,0,0,0,.13-1Z" style="fill:#27B29B"></path><path d="M226.33,340.68s9.47,2.13,4.29,10.78C230.62,351.46,220.94,349.93,226.33,340.68Z" style="fill:#27B29B"></path><path d="M247.29,347.06s1.72,8.38-4,9.48C243.31,356.54,239.28,349.73,247.29,347.06Z" style="fill:#27B29B"></path><path d="M222.4,350.72s6.33,3.29,3.39,8.42C225.79,359.14,219.66,358.2,222.4,350.72Z" style="fill:#27B29B"></path><path d="M224.13,363.73s-.18-6.11-7.8-1.84C216.33,361.89,217.49,368.64,224.13,363.73Z" style="fill:#27B29B"></path><path d="M252.52,358.24s-6-1.36-6.79,3C245.73,361.22,250.72,364.76,252.52,358.24Z" style="fill:#27B29B"></path><path d="M223.13,374.36s-.58-5.13-7.4-3.61C215.73,370.75,218,378,223.13,374.36Z" style="fill:#27B29B"></path><path d="M220.7,379.67s-4.38-2.64-7,2.29C213.65,382,219.43,385.11,220.7,379.67Z" style="fill:#27B29B"></path><path d="M256.67,372.12s-6.83-3.15-8.6,3.24C248.07,375.36,254.4,378.41,256.67,372.12Z" style="fill:#27B29B"></path><path d="M256.67,383.83s-1.9-5.36-7.67-2.38C249,381.45,251.43,388.29,256.67,383.83Z" style="fill:#27B29B"></path><path d="M252.65,381.76a51.76,51.76,0,0,0-10.17-1.3,45,45,0,0,1,10.24-6.5.5.5,0,1,0-.4-.92c-7.9,3.46-14.38,10-16.57,12.37-.08-3.67-.26-7.52-.58-11.39l0,0c.05-.07,3.09-5.16,6.11-11.61h.44a18.7,18.7,0,0,0,5.82-1.21.5.5,0,0,0,.32-.63.5.5,0,0,0-.64-.31,18,18,0,0,1-5.48,1.15,89,89,0,0,0,3.49-8.69.5.5,0,0,0-.31-.63.51.51,0,0,0-.64.31,123,123,0,0,1-9.3,19.94c-.9-9.56-2.71-19.19-6.09-26.8a.51.51,0,0,0-.66-.26.5.5,0,0,0-.25.66c3.26,7.37,5.05,16.66,6,25.94a35.81,35.81,0,0,0-5.54-5.71.39.39,0,0,0,0-.26,36.06,36.06,0,0,0-3.34-9.31.5.5,0,0,0-.68-.2.5.5,0,0,0-.21.67,37.55,37.55,0,0,1,3.11,8.26,17,17,0,0,0-4.81-2.63.49.49,0,0,0-.62.34.5.5,0,0,0,.34.62c.06,0,5.77,1.75,11.88,10.09.31,3.62.5,7.21.59,10.68a28.78,28.78,0,0,0-13.86-11.68.5.5,0,0,0-.64.3.49.49,0,0,0,.3.64,29.13,29.13,0,0,1,7.85,4.78,37,37,0,0,0-10.13,1.84.51.51,0,0,0-.31.64.5.5,0,0,0,.47.33l.17,0a37,37,0,0,1,10.88-1.82,23.41,23.41,0,0,1,5.32,7.22,232.49,232.49,0,0,1-1,25.82.5.5,0,0,0,.44.55h.06a.5.5,0,0,0,.49-.45,230.86,230.86,0,0,0,1-25.68,57.92,57.92,0,0,1,5.56-5.46c.5,0,7.12.2,11,1.3l.14,0a.5.5,0,0,0,.13-1Z" style="opacity:0.4"></path><path d="M211.85,417h47.47s-9.09-4.87-12.06-6.56-2,1.42-5.26-2.12-4.81-2.25-7.72-2.36-4.39,1.68-6.68,2.37-5.2,2.51-6.52,2.78S211.85,417,211.85,417Z" style="fill:#263238"></path></g><g id="freepik--character-2--inject-17"><path d="M296.46,273.63s-6.15-9.76,2.62-12.2S312.87,264.38,312,269s-1.59,9.76.62,10,7.85,3.48,4.39,5.59-3.34,4.84-2.31,5.73,3.21.84,0,3.05-4.5,4.89-2.83,5.41,5.14.73,2.83,2.68-1.8,3.74,0,3.87c0,0-3.22,1.84-3.86-.49s4.37-2.25.39-3.38-8.06.92-4.54-3.38-.18-1-3.09-3.34S296.46,273.63,296.46,273.63Z" style="fill:#263238"></path><path d="M292.85,315c-2,2.73,2.8,30,2.8,30L287.81,360l8.72,3.95s12.55-11.07,13-15-1.34-25.52-1.34-25.52Z" style="fill:#27B29B"></path><path d="M309.56,348.91c-.48,3.92-13,15-13,15L287.81,360,295.65,345s-4.76-27.26-2.8-30l15.38,8.35s.13,1.46.3,3.7c.25,3.12.59,7.73.83,12A80.86,80.86,0,0,1,309.56,348.91Z" style="fill:#fff;isolation:isolate;opacity:0.6000000000000001"></path><path d="M309.36,339.06c-8.31-3-11.86-19.12-11.86-19.12a127.52,127.52,0,0,1,11,7.15C308.78,330.21,309.12,334.82,309.36,339.06Z" style="isolation:isolate;opacity:0.1"></path><path d="M290.59,371.89,283,374.35l.13-7.69s7.51-1.16,8.33,1.07Z" style="fill:#ce7a63"></path><polygon points="276.82 370.7 278.3 365.38 283.11 366.66 282.98 374.35 276.82 370.7" style="fill:#ce7a63"></polygon><path d="M292.85,315q2.1,2.16,3.9,4.11c4.71,5,8.06,8.55,10.64,11.42,3.53,3.95,7.56,1.75,9.66,5.18.9,1.45,1.81,3.05,2.83,4.93L347.21,330c-7.55-19.09-15.22-24-18.08-28.93l-.09-.16a7.18,7.18,0,0,0-8.81-3c-2,.78-4.25,1.73-6.36,2.73a94,94,0,0,0-11.29,6.74A87,87,0,0,0,292.85,315Z" style="fill:#27B29B"></path><path d="M347.21,330l-14.58,5.73-11.33,4.45-1.41.55c-.36-.66-.7-1.28-1.05-1.88-.61-1.11-1.2-2.11-1.79-3.05-1.55-2.52-4.12-2-6.78-3.11a8,8,0,0,1-2.88-2.07c-.69-.77-1.44-1.6-2.26-2.49l-.08-.09c-2.21-2.38-4.9-5.23-8.3-8.85-1.21-1.29-2.5-2.66-3.9-4.1a87,87,0,0,1,9.73-7.72,93.2,93.2,0,0,1,11.29-6.74c2.1-1,4.4-2,6.36-2.74a7.18,7.18,0,0,1,8.81,3l.09.16a20,20,0,0,0,1.82,2.53c1.18,1.44,2.65,3.07,4.32,5.16C338.71,313,343,319.26,347.21,330Z" style="fill:#fff;isolation:isolate;opacity:0.6000000000000001"></path><path d="M332.63,335.68l-11.33,4.45c-.81-.39-1.64-.84-2.46-1.33a68.92,68.92,0,0,1-8.57-6.16c-2.71-2.25-4.7-4.14-5.14-4.56l-.08-.09,1.1-2.6s9.67.4,11.83-.34,3.37-14,3.37-14l10.86-.77A62.44,62.44,0,0,1,332.63,335.68Z" style="isolation:isolate;opacity:0.1"></path><path d="M287.08,405c-.14,3.88,2.41,6.71,8.63,8.21,11.43,2.78,35.25,1.09,77.48-6.72l-3.34-4.19-60,.27L329,379.33l1.8-2.18-20.39-10.87s-2.91,3.5-6.67,8.52c-.26.34-.52.7-.8,1.06C296.19,384.92,287.31,398.11,287.08,405Z" style="fill:#e4897b"></path><path d="M295.71,413.16c11.43,2.78,35.25,1.09,77.48-6.72l-3.34-4.19-60,.27L329,379.33l-25.26-4.53c-.26.34-.52.7-.8,1.06l7.22,6.31S295.6,401.57,295.71,413.16Z" style="opacity:0.2"></path><path d="M368.25,402c-.38.49,5.9,4.9,5.9,4.9s6.67-.8,10.91,1.22,4-1.72,0-4.91l-9.87-7.91C372.33,393,372.17,396.85,368.25,402Z" style="fill:#263238"></path><path d="M326.51,367.79l20.38,10.88-21,25.36,39.07.7h0l18-.47,3.24,4.64c-71.3,13.21-83.44,8.59-83.05-2.44S326.51,367.79,326.51,367.79Z" style="fill:#e4897b"></path><path d="M313.32,318.08l.91-15.71c-6.23.5-9.22-7.3-9.22-7.3l-4.59,7.49a26.63,26.63,0,0,1,2.92,2.18c3.93,3.47,2.38,5.26,2.38,5.26Z" style="fill:#e4897b"></path><path d="M300.42,302.56a26.63,26.63,0,0,1,2.92,2.18c2.08-3.73,1.67-9.67,1.67-9.67Z" style="isolation:isolate;opacity:0.2"></path><path d="M294.36,273.11s4.67-3.82,9.21,1.11.59,8.81.59,8.81Z" style="fill:#27B29B"></path><path d="M300.14,276.38s-6.06-5.71-11.76-5.19-10.57,2.82-9.8,7.45,2.82,5,1,7-4.11,2.28-1.55,4.71,4.88,4.28,3.73,5.4-2.83,3.92-.26,5.74a15.36,15.36,0,0,0,5,2.34s-3-1.46-2.64-2.34,4.81-.12,4.5-2.68,3.46-5.68,8.77-6.76S300.14,276.38,300.14,276.38Z" style="fill:#263238"></path><path d="M291.67,277.87c-7.05,2.59-7.93,7.2-5.78,14.66,2.7,9.32,7.08,15,15.19,9.85C312.09,295.34,303.39,273.56,291.67,277.87Z" style="fill:#e4897b"></path><path d="M290.31,290.46a15.81,15.81,0,0,1-1,3.68,2.07,2.07,0,0,0,2.15.12Z" style="fill:#de5753"></path><path d="M294.41,288.3c.2.58.68.95,1.07.81s.54-.71.34-1.29-.67-1-1.06-.82S294.21,287.71,294.41,288.3Z" style="fill:#263238"></path><path d="M294.93,287l-1.44-.06S294.49,287.76,294.93,287Z" style="fill:#263238"></path><path d="M287.11,290.66c.2.58.67.95,1.06.81s.55-.71.35-1.3-.68-.95-1.07-.81S286.91,290.07,287.11,290.66Z" style="fill:#263238"></path><path d="M287.62,289.33l-1.44-.07S287.18,290.12,287.62,289.33Z" style="fill:#263238"></path><path d="M296.14,283.78a.35.35,0,0,1-.19-.06,3.59,3.59,0,0,0-3.11-.09.35.35,0,0,1-.47-.17.36.36,0,0,1,.18-.47,4.23,4.23,0,0,1,3.79.14.36.36,0,0,1,.1.49A.34.34,0,0,1,296.14,283.78Z" style="fill:#263238"></path><path d="M285,287.09a.33.33,0,0,1-.17,0,.35.35,0,0,1-.13-.48,3.87,3.87,0,0,1,2.65-2.09.36.36,0,0,1,.39.31.34.34,0,0,1-.3.39,3.19,3.19,0,0,0-2.13,1.73A.34.34,0,0,1,285,287.09Z" style="fill:#263238"></path><path d="M303.75,286.92s-5.43-4.58-6.57-9.24c0,0-16.08-.57-11.55,13.87,0,0-6-12.09,6-16.83s18.5,13,14.18,20.6C305.83,295.32,307.13,289.8,303.75,286.92Z" style="fill:#263238"></path><path d="M303.15,288.83a3.3,3.3,0,0,1,2.29-4.05c2.27-.56,5,3.54-.08,6.62C304.64,291.84,303.92,291.24,303.15,288.83Z" style="fill:#e4897b"></path><path d="M292.63,297.05a17.51,17.51,0,0,1,2.32,1.2l.3-.35c1.34-1.59,1.44-2.77,1.14-3.6a2.68,2.68,0,0,0-.72-1.05,3,3,0,0,0-.59-.42,9.78,9.78,0,0,1-2,3.67C292.82,296.84,292.63,297.05,292.63,297.05Z" style="fill:#263238"></path><path d="M293.08,296.5l.7.33c1.26-1.5,2-2.72,1.89-3.58a3,3,0,0,0-.59-.42A9.78,9.78,0,0,1,293.08,296.5Z" style="fill:#fff"></path><path d="M295.25,297.9c1.34-1.59,1.44-2.77,1.14-3.6a6.82,6.82,0,0,0-1.14,2.06A2.44,2.44,0,0,0,295.25,297.9Z" style="fill:#de5753"></path><path d="M380.35,404c-.38.49,5.9,4.9,5.9,4.9s6.67-.8,10.91,1.22,4-1.72,0-4.92l-9.87-7.9C384.43,395,384.27,398.86,380.35,404Z" style="fill:#263238"></path><path d="M390.62,409.88a1.06,1.06,0,0,1,.41.57.72.72,0,0,1-.37.75.79.79,0,0,1-.64.15,3.05,3.05,0,0,1-1.45-.93c.27.65.45,1.31.21,1.64a.7.7,0,0,1-.79.18,1.16,1.16,0,0,1-.79-.59c-.54-1,.07-2.77.1-2.86a.16.16,0,0,1,0-.07h0l.05,0h0l.07,0h.08A9.79,9.79,0,0,1,390.62,409.88Zm-1.34.64a1.86,1.86,0,0,0,.8.43.43.43,0,0,0,.34-.07c.25-.19.22-.31.22-.35-.1-.46-1.46-1-2.64-1.33A9.34,9.34,0,0,0,389.28,410.52Zm-1.53,1.18a.91.91,0,0,0,.33.15c.11,0,.31.06.37,0,.2-.28-.28-1.43-.89-2.47a3.35,3.35,0,0,0,0,2.1A1,1,0,0,0,387.75,411.7Z" style="fill:#27B29B"></path><path d="M301.91,374.56l13.42,6.71,2.65-2.61,22.54,12.64c7-8.53,16.58-24.17,15.26-36.8-.83-8-8.31-24.05-8.57-24.55l-27.85,9.78.6,3.41-2.9,10.2S311.12,360.62,301.91,374.56Z" style="fill:#27B29B"></path><polygon points="347.84 330.52 338.29 333.88 339.37 336.8 349.18 333.58 347.84 330.52" style="fill:#263238"></polygon><polygon points="337.19 334.27 321.86 339.67 322.57 342.28 338.14 337.2 337.19 334.27" style="fill:#263238"></polygon><polygon points="319.28 340.58 319.74 343.21 321.35 342.68 320.74 340.06 319.28 340.58" style="fill:#263238"></polygon><path d="M326.54,341.44a1.07,1.07,0,0,1-1-.75l-.49-1.58a1.05,1.05,0,0,1,.66-1.31l2.9-1a1,1,0,0,1,.84.06,1,1,0,0,1,.53.65l.48,1.65a1.05,1.05,0,0,1-.7,1.3l-2.87.95A1.33,1.33,0,0,1,326.54,341.44Zm-.08-1,.11.06h0l2.88-.94a.09.09,0,0,0,.06-.11l-.47-1.65h0a.1.1,0,0,0-.05-.06l-3,1a.1.1,0,0,0-.06.12l.49,1.57Z" style="fill:#fff"></path><path d="M326.36,340.06a.48.48,0,0,1-.46-.35.49.49,0,0,1,.32-.61l1.08-.33a.49.49,0,0,1,.29.93l-1.08.33A.4.4,0,0,1,326.36,340.06Z" style="fill:#fff"></path><path d="M318,378.66,330,362s-14.82,9.27-18.88,17l4.21,2.23Z" style="opacity:0.2"></path><polygon points="317.98 378.66 303.13 371.79 300.97 374.75 315.33 381.27 317.98 378.66" style="fill:#27B29B"></polygon><polygon points="300.97 374.75 310.86 379.08 315.33 381.27 317.98 378.66 313.01 376.2 313 376.2 303.13 371.79 300.97 374.75" style="fill:#fff;isolation:isolate;opacity:0.6000000000000001"></polygon><polygon points="310.86 379.08 315.33 381.27 317.98 378.66 313.01 376.2 313 376.2 310.86 379.08" style="opacity:0.2"></polygon><polygon points="342.24 390.88 318.48 376.97 316.3 379.22 339.54 393.34 342.24 390.88" style="fill:#27B29B"></polygon><polygon points="342.24 390.88 318.48 376.97 316.3 379.22 339.54 393.34 342.24 390.88" style="fill:#fff;isolation:isolate;opacity:0.6000000000000001"></polygon><path d="M314.89,300.11l-5.32.95s1.93,3.92,1,7.13l2.13,9-4.45-8.07a12.57,12.57,0,0,1-4.13-3.63l-1.07,4.4,2,7.3,2-5,6.29,5.91.91-9.38,5.17.39S318.12,302.94,314.89,300.11Z" style="fill:#27B29B"></path><path d="M314.89,300.11l-5.32.95s1.93,3.92,1,7.13l2.13,9-4.45-8.07a12.57,12.57,0,0,1-4.13-3.63l-1.07,4.4,2,7.3,2-5,6.29,5.91.91-9.38,5.17.39S318.12,302.94,314.89,300.11Z" style="fill:#fff;isolation:isolate;opacity:0.5"></path><path d="M297.52,342.4a1,1,0,0,1-.67-1c0-.15.5-15.44-5.58-19.75-1.92-1.35-4.28-1.45-7.22-.29a1,1,0,0,1-1.3-.56,1,1,0,0,1,.57-1.3c3.56-1.41,6.63-1.23,9.1.52,7,4.93,6.46,20.79,6.43,21.46a1,1,0,0,1-1,1A1,1,0,0,1,297.52,342.4Z" style="fill:#263238"></path><g style="isolation:isolate;opacity:0.4"><path d="M297.52,342.4a1,1,0,0,1-.67-1c0-.15.5-15.44-5.58-19.75-1.92-1.35-4.28-1.45-7.22-.29a1,1,0,0,1-1.3-.56,1,1,0,0,1,.57-1.3c3.56-1.41,6.63-1.23,9.1.52,7,4.93,6.46,20.79,6.43,21.46a1,1,0,0,1-1,1A1,1,0,0,1,297.52,342.4Z" style="fill:#fff"></path></g><path d="M272.75,343.68,281,372.74s12.37,2.88,22.75-5.75l-5-28A26.86,26.86,0,0,0,272.75,343.68Z" style="fill:#263238"></path><path d="M303.72,367c-10.39,8.63-22.77,5.76-22.77,5.76l-8.21-29.06a26.94,26.94,0,0,1,25.9-4.71l.05,0Z" style="fill:#fff;isolation:isolate;opacity:0.6000000000000001"></path><path d="M298.69,339s-3.85,3.4-13.26,5.31-12.69-.63-12.69-.63a26.94,26.94,0,0,1,25.9-4.71Z" style="fill:#fff;isolation:isolate;opacity:0.6000000000000001"></path><path d="M281,359.93s-9.35-5.25-12.32-6.42-7,3.54-7,3.54l2.25,2s3.65-2.41,5.19-1.33,11.35,10.32,11.35,10.32S284.5,363.18,281,359.93Z" style="fill:#263238"></path><path d="M281,359.93s-9.35-5.25-12.32-6.42-7,3.54-7,3.54l2.25,2s3.65-2.41,5.19-1.33,11.35,10.32,11.35,10.32S284.5,363.18,281,359.93Z" style="fill:#fff;isolation:isolate;opacity:0.4"></path><path d="M255.88,355.82s4.33-1.27,7.65,1,2.59,7.5,2.59,7.5S257.8,365.72,255.88,355.82Z" style="fill:#263238"></path><path d="M266.12,364.36s-8.33,1.35-10.23-8.52c0,0,4.31-1.29,7.64,1S266.12,364.36,266.12,364.36Z" style="fill:#fff;isolation:isolate;opacity:0.6000000000000001"></path><path d="M266.12,364.36s-8.33,1.35-10.23-8.52C255.89,355.84,263.55,355.79,266.12,364.36Z" style="opacity:0.2"></path><path d="M274.57,346.92a1,1,0,0,1-.63-.63c-.06-.21-6.49-20.52,9.38-26.78a1,1,0,0,1,1.3.56,1,1,0,0,1-.57,1.3c-14.11,5.57-8.45,23.54-8.21,24.3a1,1,0,0,1-.64,1.26A1,1,0,0,1,274.57,346.92Z" style="fill:#263238"></path><g style="isolation:isolate;opacity:0.4"><path d="M274.57,346.92a1,1,0,0,1-.63-.63c-.06-.21-6.49-20.52,9.38-26.78a1,1,0,0,1,1.3.56,1,1,0,0,1-.57,1.3c-14.11,5.57-8.45,23.54-8.21,24.3a1,1,0,0,1-.64,1.26A1,1,0,0,1,274.57,346.92Z" style="fill:#fff"></path></g><path d="M242.87,368.82c-.35.57-.68,1.16-1,1.73a.36.36,0,0,0,.16.49l.12,0a.38.38,0,0,0,.37-.2c.28-.56.6-1.12,1-1.68a.36.36,0,0,0-.62-.38Z" style="fill:#27B29B"></path><path d="M245.47,365.37a28.37,28.37,0,0,0-1.92,2.43.37.37,0,0,0,.09.5.35.35,0,0,0,.17.06.34.34,0,0,0,.33-.15,26.84,26.84,0,0,1,1.87-2.36.35.35,0,0,0,0-.51A.36.36,0,0,0,245.47,365.37Z" style="fill:#27B29B"></path><path d="M251,360.87a.36.36,0,0,0-.5-.08,36.32,36.32,0,0,0-3.71,3.22.36.36,0,0,0,0,.51.32.32,0,0,0,.22.1.33.33,0,0,0,.29-.1,37.12,37.12,0,0,1,3.63-3.15A.35.35,0,0,0,251,360.87Z" style="fill:#27B29B"></path><path d="M251.81,360.59a.35.35,0,0,0,.24-.06c1.12-.78,1.87-1.2,1.87-1.2a.36.36,0,0,0-.35-.63s-.78.44-1.93,1.24a.36.36,0,0,0-.09.5A.35.35,0,0,0,251.81,360.59Z" style="fill:#27B29B"></path><path d="M258.32,379.16a.35.35,0,0,0-.37.34c0,.68,0,1.35,0,2a.36.36,0,0,0,.32.33h.06a.36.36,0,0,0,.34-.38c0-.62-.05-1.27,0-1.92A.34.34,0,0,0,258.32,379.16Z" style="fill:#27B29B"></path><path d="M258.34,378.66h0a.37.37,0,0,0,.39-.33,24.59,24.59,0,0,1,.43-3,.36.36,0,1,0-.71-.14,25.63,25.63,0,0,0-.44,3.06A.36.36,0,0,0,258.34,378.66Z" style="fill:#27B29B"></path><path d="M260.93,368.56a.35.35,0,0,0-.47.19,35.29,35.29,0,0,0-1.58,4.64.36.36,0,0,0,.26.45h.05a.38.38,0,0,0,.39-.27,33.87,33.87,0,0,1,1.54-4.55A.35.35,0,0,0,260.93,368.56Z" style="fill:#27B29B"></path><path d="M262.59,365.25a.37.37,0,0,0-.5.12s-.45.77-1,2a.35.35,0,0,0,.17.48l.11,0a.36.36,0,0,0,.37-.2c.58-1.24,1-2,1-2A.36.36,0,0,0,262.59,365.25Z" style="fill:#27B29B"></path><path d="M256.71,362.73c-.48.44-1,.91-1.42,1.41a.36.36,0,0,0,0,.51.37.37,0,0,0,.2.09.38.38,0,0,0,.31-.11c.44-.48.9-.94,1.36-1.36a.36.36,0,0,0-.48-.54Z" style="fill:#27B29B"></path><path d="M254.49,365.07a25.41,25.41,0,0,0-1.83,2.49.36.36,0,0,0,.1.5.3.3,0,0,0,.16.05.35.35,0,0,0,.34-.16,27,27,0,0,1,1.78-2.42.35.35,0,0,0,0-.51A.34.34,0,0,0,254.49,365.07Z" style="fill:#27B29B"></path><path d="M251.68,369.15a36.19,36.19,0,0,0-2.12,4.43.37.37,0,0,0,.21.47l.09,0a.35.35,0,0,0,.37-.22,36.21,36.21,0,0,1,2.08-4.34.36.36,0,0,0-.13-.49A.37.37,0,0,0,251.68,369.15Z" style="fill:#27B29B"></path><path d="M249.51,374.72a.37.37,0,0,0-.46.23c-.47,1.32-.67,2.15-.68,2.18a.36.36,0,0,0,.26.44h.05a.36.36,0,0,0,.39-.27s.21-.84.66-2.13A.36.36,0,0,0,249.51,374.72Z" style="fill:#27B29B"></path><g style="isolation:isolate;opacity:0.6000000000000001"><path d="M242.87,368.82c-.35.57-.68,1.16-1,1.73a.36.36,0,0,0,.16.49l.12,0a.38.38,0,0,0,.37-.2c.28-.56.6-1.12,1-1.68a.36.36,0,0,0-.62-.38Z" style="fill:#fff"></path><path d="M245.47,365.37a28.37,28.37,0,0,0-1.92,2.43.37.37,0,0,0,.09.5.35.35,0,0,0,.17.06.34.34,0,0,0,.33-.15,26.84,26.84,0,0,1,1.87-2.36.35.35,0,0,0,0-.51A.36.36,0,0,0,245.47,365.37Z" style="fill:#fff"></path><path d="M251,360.87a.36.36,0,0,0-.5-.08,36.32,36.32,0,0,0-3.71,3.22.36.36,0,0,0,0,.51.32.32,0,0,0,.22.1.33.33,0,0,0,.29-.1,37.12,37.12,0,0,1,3.63-3.15A.35.35,0,0,0,251,360.87Z" style="fill:#fff"></path><path d="M251.81,360.59a.35.35,0,0,0,.24-.06c1.12-.78,1.87-1.2,1.87-1.2a.36.36,0,0,0-.35-.63s-.78.44-1.93,1.24a.36.36,0,0,0-.09.5A.35.35,0,0,0,251.81,360.59Z" style="fill:#fff"></path><path d="M258.32,379.16a.35.35,0,0,0-.37.34c0,.68,0,1.35,0,2a.36.36,0,0,0,.32.33h.06a.36.36,0,0,0,.34-.38c0-.62-.05-1.27,0-1.92A.34.34,0,0,0,258.32,379.16Z" style="fill:#fff"></path><path d="M258.34,378.66h0a.37.37,0,0,0,.39-.33,24.59,24.59,0,0,1,.43-3,.36.36,0,1,0-.71-.14,25.63,25.63,0,0,0-.44,3.06A.36.36,0,0,0,258.34,378.66Z" style="fill:#fff"></path><path d="M260.93,368.56a.35.35,0,0,0-.47.19,35.29,35.29,0,0,0-1.58,4.64.36.36,0,0,0,.26.45h.05a.38.38,0,0,0,.39-.27,33.87,33.87,0,0,1,1.54-4.55A.35.35,0,0,0,260.93,368.56Z" style="fill:#fff"></path><path d="M262.59,365.25a.37.37,0,0,0-.5.12s-.45.77-1,2a.35.35,0,0,0,.17.48l.11,0a.36.36,0,0,0,.37-.2c.58-1.24,1-2,1-2A.36.36,0,0,0,262.59,365.25Z" style="fill:#fff"></path><path d="M256.71,362.73c-.48.44-1,.91-1.42,1.41a.36.36,0,0,0,0,.51.37.37,0,0,0,.2.09.38.38,0,0,0,.31-.11c.44-.48.9-.94,1.36-1.36a.36.36,0,0,0-.48-.54Z" style="fill:#fff"></path><path d="M254.49,365.07a25.41,25.41,0,0,0-1.83,2.49.36.36,0,0,0,.1.5.3.3,0,0,0,.16.05.35.35,0,0,0,.34-.16,27,27,0,0,1,1.78-2.42.35.35,0,0,0,0-.51A.34.34,0,0,0,254.49,365.07Z" style="fill:#fff"></path><path d="M251.68,369.15a36.19,36.19,0,0,0-2.12,4.43.37.37,0,0,0,.21.47l.09,0a.35.35,0,0,0,.37-.22,36.21,36.21,0,0,1,2.08-4.34.36.36,0,0,0-.13-.49A.37.37,0,0,0,251.68,369.15Z" style="fill:#fff"></path><path d="M249.51,374.72a.37.37,0,0,0-.46.23c-.47,1.32-.67,2.15-.68,2.18a.36.36,0,0,0,.26.44h.05a.36.36,0,0,0,.39-.27s.21-.84.66-2.13A.36.36,0,0,0,249.51,374.72Z" style="fill:#fff"></path></g><path d="M296.28,323.33,291.41,317l-4.26,6.41s5.52,5.22,7.47,3.85Z" style="fill:#ce7a63"></path><polygon points="284.27 316.49 282.46 321.71 287.15 323.39 291.41 316.98 284.27 316.49" style="fill:#ce7a63"></polygon><polygon points="296.41 323.03 309.57 327.43 308.81 333.66 294.64 327.19 293.84 324.7 296.41 323.03" style="fill:#ce7a63"></polygon><path d="M321.85,297.87c-1.86,1.93-.52,28.76-1.53,29.56s-13.15-1.6-13.15-1.6l-1,8.19s18.15,10.29,23.36,3.6,4.79-26.15,2.11-33.27S324,295.64,321.85,297.87Z" style="fill:#27B29B"></path><path d="M321.85,297.87c-1.86,1.93-.52,28.76-1.53,29.56s-13.15-1.6-13.15-1.6l-1,8.19s18.15,10.29,23.36,3.6,4.79-26.15,2.11-33.27S324,295.64,321.85,297.87Z" style="fill:#fff;isolation:isolate;opacity:0.6000000000000001"></path><polygon points="308.32 325.54 307.33 336.23 303.03 332.38 304.47 325.06 308.32 325.54" style="fill:#27B29B"></polygon><polygon points="308.32 325.54 307.33 336.23 303.03 332.38 304.47 325.06 308.32 325.54" style="fill:#fff;isolation:isolate;opacity:0.5"></polygon></g><g id="freepik--character-1--inject-17"><g id="freepik--group--inject-17"><path d="M190.76,196.51c6.78,5.52,21.6,17.9,19.34,27.58-1.34,5.68-4.73,10.2-8.08,14.68a107.09,107.09,0,0,1-10.4,11.49L188,247.11c2.85-4.31,15.32-21.7,13.34-25.93-3.85-6.7-10.77-12-16.57-17.06l6-7.61Z" style="fill:#b55b52"></path><path d="M182.79,189.94c11.11.26,30.1,28.3,30.5,31.49S208,233.91,208,233.91l-10.56-5.3,1.15-6-16.07-16.32Z" style="fill:#27B29B"></path><path d="M208,233.91l-10.56-5.3,1.15-6-9.26-9.41-6.81-6.91.08-4,.23-12.39c11.11.26,30.1,28.3,30.5,31.49S208,233.91,208,233.91Z" style="fill:#fff;opacity:0.6000000000000001"></path><path d="M189.29,213.23l-6.81-6.91.08-4a7,7,0,0,1,.56-1S188.78,206.08,189.29,213.23Z" style="isolation:isolate;opacity:0.1"></path><polygon points="197.46 225.46 211.01 231.24 205.99 236.09 196.88 230.16 197.46 225.46" style="fill:#27B29B"></polygon><polygon points="197.46 225.46 211.01 231.24 205.99 236.09 196.88 230.16 197.46 225.46" style="fill:#fff;isolation:isolate;opacity:0.4"></polygon><polygon points="186.41 259.31 193.98 258.96 194.24 253.54 185.1 253.53 186.41 259.31" style="fill:#b55b52"></polygon><path d="M188.17,247l-3.07,6.55h9.14s1.37-6.14-1.83-7.21Z" style="fill:#b55b52"></path><path d="M104,414.51a43.57,43.57,0,0,0,10.41-28.25v-4.75H85.08v4.75a43.57,43.57,0,0,0,10.41,28.25Z" style="fill:#263238"></path><path d="M104,414.51a43.57,43.57,0,0,0,10.41-28.25v-4.75H85.08v4.75a43.57,43.57,0,0,0,10.41,28.25Z" style="fill:#fff;isolation:isolate;opacity:0.6000000000000001"></path><path d="M101.87,265.76V382.83a2.15,2.15,0,1,1-4.29,0V265.76Z" style="fill:#263238"></path><rect x="97.58" y="265.76" width="4.29" height="5.81" style="fill:#fff;isolation:isolate;opacity:0.6000000000000001"></rect><path d="M99.72,269.36l-.84-.51c-7-4.25-11-10.42-11-16.94V248h23.69v3.9c0,6.52-4,12.69-11,16.94Zm-8.59-18.09v.64c0,5.1,3.12,10,8.59,13.62,5.47-3.6,8.59-8.52,8.59-13.62v-.64Z" style="fill:#263238"></path><g style="isolation:isolate;opacity:0.6000000000000001"><path d="M99.72,269.36l-.84-.51c-7-4.25-11-10.42-11-16.94V248h23.69v3.9c0,6.52-4,12.69-11,16.94Zm-8.59-18.09v.64c0,5.1,3.12,10,8.59,13.62,5.47-3.6,8.59-8.52,8.59-13.62v-.64Z" style="fill:#fff"></path></g><path d="M148.74,410.46s17.07-92,17.28-143.8l-17.31-.55s2.48,47.54-7.42,144Z" style="fill:#b55b52"></path><path d="M191.33,409.77S196,316.36,189.28,265l-17.22,1.77s8.79,46.78,11.83,143.68Z" style="fill:#b55b52"></path><path d="M174.6,309c-1.34-8.45-3-15.8-5-21.23-.28,3.56-1.1,11.26-2.23,21.23H145.2c.71-26.46,1.11-56.94,1.15-60.77h40.56c1.75,9.56,5.2,32.44,7.62,60.77Z" style="fill:#27B29B"></path><path d="M174.6,309c-1.34-8.45-3-15.8-5-21.23-.28,3.56-1.1,11.26-2.23,21.23H145.2c.71-26.46,1.11-56.94,1.15-60.77h40.56c1.75,9.56,5.2,32.44,7.62,60.77Z" style="fill:#fff;opacity:0.2"></path><path d="M169.6,287.74a109.2,109.2,0,0,1,4.53,17.54c1.13-15.51-3.4-32-3.4-32Z" style="isolation:isolate;opacity:0.2"></path><polygon points="187.25 248.68 146.43 248.68 146.43 253.54 187.77 253.04 187.25 248.68" style="fill:#263238"></polygon><rect x="159.55" y="246.5" width="1.46" height="8.63" transform="translate(320.55 501.62) rotate(180)" style="fill:#27B29B"></rect><rect x="180.2" y="246.5" width="1.46" height="8.63" transform="translate(361.86 501.62) rotate(180)" style="fill:#27B29B"></rect><g style="opacity:0.2"><rect x="159.55" y="246.5" width="1.46" height="8.63" transform="translate(320.55 501.62) rotate(180)" style="fill:#fff"></rect><rect x="180.2" y="246.5" width="1.46" height="8.63" transform="translate(361.86 501.62) rotate(180)" style="fill:#fff"></rect></g><rect x="168.64" y="247.83" width="7.55" height="5.44" transform="translate(344.84 501.11) rotate(180)" style="fill:#fff"></rect><polygon points="168.64 307.52 168.37 310.04 144.51 308.94 144.51 306.46 168.64 307.52" style="fill:#27B29B"></polygon><polygon points="195.08 306.99 173.72 307.78 174.31 310.04 195.08 308.97 195.08 306.99" style="fill:#27B29B"></polygon><path d="M146.3,249.47c-1.08-23.23-7.91-56.1-7.91-56.1,19-4.57,44.4-3.43,44.4-3.43,5,17.74,4.86,46.36,4.44,59.53Z" style="fill:#27B29B"></path><path d="M138.39,193.37s1.29,6.22,2.84,15.17c.87,5,1.81,10.83,2.66,16.92,1.12,8.06,2.06,16.53,2.41,24h40.93c.42-13.17.52-41.79-4.44-59.53,0,0-4.09-.18-10.21-.11a201.08,201.08,0,0,0-22.25,1.42A108.79,108.79,0,0,0,138.39,193.37Z" style="fill:#fff;opacity:0.6000000000000001"></path><path d="M150.33,191.25l10.95,10.67,3-6.18c6.39,22.73,8,48.24,8.11,50.59-1.14-29.42-4.39-46.35-6-50.92l5.24,4.24.93-9.82A201.08,201.08,0,0,0,150.33,191.25Z" style="isolation:isolate;opacity:0.1"></path><path d="M167.1,184.75a5.1,5.1,0,0,0,.39,3.24,4.46,4.46,0,0,0,2.2,1.38,8.81,8.81,0,0,1-2.8,2.76h-5.61s-2.54.57-3.51,0c-.79-.45-1.63-.87-2.39-1.38a9.31,9.31,0,0,1-1.1-.89,5.47,5.47,0,0,0,2.64-2.86c1-3.17-.08-14-.08-14l11.86,4.87s-.1.27-.23.72A36.58,36.58,0,0,0,167.1,184.75Z" style="fill:#b55b52"></path><path d="M158.7,179.64s2.55,5.3,8.4,5.11a36.58,36.58,0,0,1,1.37-6.16l-.73-.27Z" style="isolation:isolate;opacity:0.2"></path><path d="M174.17,152.44c2.54.36,1.12,4.17-.41,6.21s-.55,4-2.39,6.79-8.93,3.1-10.11,5.25-2.16,5.6-6.12,4.91-8.94,3.44-9.57,0,2.66-9.73,9.57-15.49S169.68,151.82,174.17,152.44Z" style="fill:#27B29B"></path><path d="M174.17,152.44c2.54.36,1.12,4.17-.41,6.21s-.55,4-2.39,6.79-8.93,3.1-10.11,5.25-2.16,5.6-6.12,4.91-8.94,3.44-9.57,0,2.66-9.73,9.57-15.49S169.68,151.82,174.17,152.44Z" style="isolation:isolate;opacity:0.2"></path><path d="M165.83,186.84a4.8,4.8,0,0,1-1.31-.2.25.25,0,0,1-.17-.31.24.24,0,0,1,.31-.17,3.48,3.48,0,0,0,3.88-1.2c3.72-4.37,3.5-17.65,1.27-22.31a.25.25,0,0,1,.12-.34.24.24,0,0,1,.33.12c2.28,4.76,2.48,18.37-1.34,22.85A4,4,0,0,1,165.83,186.84Z" style="fill:#27B29B"></path><path d="M165.3,152.66s6.71,7.89,4.15,14.09-12.56-10-12.56-10Z" style="fill:#263238"></path><path d="M160.32,182a9.28,9.28,0,0,0,11-2.54,10.36,10.36,0,0,0,2.49-7.2,10.22,10.22,0,0,0-.09-1.09c-1-6.72-6-16.48-13.82-16.49a10.05,10.05,0,0,0-10.14,10,9.94,9.94,0,0,0,1,4.57C153.91,175.82,155.45,179.88,160.32,182Z" style="fill:#b55b52"></path><path d="M161.88,166.9c.19.56.7.88,1.07.73s.47-.72.25-1.27-.71-.88-1.07-.74S161.66,166.33,161.88,166.9Z" style="fill:#263238"></path><path d="M168.16,164.36c.18.57.7.88,1.06.74s.47-.72.25-1.28-.7-.88-1.06-.73S168,163.83,168.16,164.36Z" style="fill:#263238"></path><path d="M166.27,165.44a21.39,21.39,0,0,0,4.58,3.68,3.45,3.45,0,0,1-2.47,1.57Z" style="fill:#a02724"></path><path d="M169.4,160.74a.36.36,0,0,1-.34.13,2.81,2.81,0,0,0-2.45.67.36.36,0,0,1-.5,0,.35.35,0,0,1,0-.5h0a3.5,3.5,0,0,1,3.07-.88.34.34,0,0,1,.3.39h0A.77.77,0,0,1,169.4,160.74Z" style="fill:#263238"></path><path d="M159.62,164.89a.34.34,0,0,1-.2,0,.34.34,0,0,1-.16-.47h0a3.48,3.48,0,0,1,2.59-1.9.35.35,0,0,1,.38.31h0a.36.36,0,0,1-.31.39h0a2.83,2.83,0,0,0-2,1.54A.34.34,0,0,1,159.62,164.89Z" style="fill:#263238"></path><path d="M152.32,158.65l1.72,2.78a2.41,2.41,0,0,0,.17,3.27c2.09,2,2.46,6.53,1.27,8.93,0,0-.56-1-1.35-.37s2,6.14,5,8c0,0-3.79-1.18-8-6.35-3.89-4.78-6.15-9.22-6-11.83Z" style="fill:#263238"></path><path d="M150,176a7,7,0,0,0,5.05,1.78c2.45-.15,2.87-2.54,1.53-4.43-1.21-1.68-4-3.69-6.09-2.58S148.37,174.43,150,176Z" style="fill:#b55b52"></path><path d="M165.3,152.66c.66.57.45,3.67-1.83,6s-.41-1.61-.41-1.61-4.83,4-5.26,3.38.9-2.35.9-2.35-3.8,3.94-7.9,4.45.36-8.32,4.77-9.86S163.32,150.94,165.3,152.66Z" style="fill:#263238"></path><path d="M164.59,186.65h-.07c-8-2.36-13.62-19.22-13.85-19.93a.25.25,0,1,1,.47-.16c.06.18,5.74,17.32,13.52,19.61a.24.24,0,0,1,.17.31A.25.25,0,0,1,164.59,186.65Z" style="fill:#27B29B"></path><path d="M164.59,152l-7.21-4.34s-4.12,0-8.77,5.06-5.1,8.74-5.1,8.74l2.17,5.56Z" style="fill:#27B29B"></path><path d="M164.59,152a14.07,14.07,0,0,0-6.77,1.18c-3.3,1.55-9.69,7.27-12.14,13.84,0,0,10.61-5.55,13.78-9.05S164.59,152,164.59,152Z" style="isolation:isolate;opacity:0.2"></path><path d="M174.17,152.44l-9.58-.46a25.82,25.82,0,0,0-10.22,4.63c-4.28,3.52-8.69,10.39-8.69,10.39l-.11,8.6s.05-3.54,5-5.72c2.7-1.19,4.86-6.66,6.64-8.61s6.7-2.41,8.28-3.79S169.63,152.9,174.17,152.44Z" style="fill:#27B29B"></path><path d="M167.21,174.57a5.17,5.17,0,0,1-4-1.82.25.25,0,1,1,.4-.3,4.66,4.66,0,0,0,5.09,1.4.25.25,0,1,1,.14.48A6.24,6.24,0,0,1,167.21,174.57Z" style="fill:#263238"></path><polygon points="155.72 186.58 164.29 191.44 167.94 186.4 171.65 188.92 170.03 196.68 164.59 192.53 162.01 198.86 150.9 190.75 155.72 186.58" style="fill:#27B29B"></polygon><polygon points="155.72 186.58 164.29 191.44 167.94 186.4 171.65 188.92 170.03 196.68 164.59 192.53 162.01 198.86 150.9 190.75 155.72 186.58" style="fill:#fff;opacity:0.6000000000000001"></polygon><path d="M181.2,415.35l1.1-5,.18-8.9h7.46a1.82,1.82,0,0,1,3-1.22l1,8.22c1.89,1.69,6.32,3.47,12.21,4.76,1.32.29.9,3.46-2.31,3.46s-10.22-.25-12.54-.25c-3.77,0-6,.19-9,.24a1.07,1.07,0,0,1-.25,0A1.12,1.12,0,0,1,181.2,415.35Z" style="fill:#263238"></path><path d="M138.2,415.35l1.1-5,1.65-8.9h7.45a1.82,1.82,0,0,1,3-1.22l-.45,8.22c1.89,1.69,6.32,3.47,12.21,4.76,1.32.29.9,3.46-2.31,3.46s-10.22-.25-12.54-.25c-3.77,0-6,.19-9,.24a1.07,1.07,0,0,1-.25,0A1.12,1.12,0,0,1,138.2,415.35Z" style="fill:#263238"></path><path d="M141.23,208.54c.87,5,1.81,10.83,2.66,16.92,3.55-8.2.09-20.15.09-20.15A13.55,13.55,0,0,0,141.23,208.54Z" style="isolation:isolate;opacity:0.1"></path><path d="M142.9,208.08c-2.81,7.12-5.74,14.2-10.46,20.38-4,4.46-8.92,8-13.57,11.43-3.52,2.53-7.11,4.91-10.81,7.19l-2.91-3.81c6.25-6.16,14.93-13.55,20.41-20.18,3.33-5.76,5.63-12.38,8.32-18.53l9,3.52Z" style="fill:#b55b52"></path><polygon points="94.07 247.07 97.93 253.58 102.84 251.26 98.55 243.19 94.07 247.07" style="fill:#b55b52"></polygon><path d="M105.77,242.82l-7.22.37,4.29,8.07s6.06-1.68,5.5-5Z" style="fill:#b55b52"></path><path d="M138.39,193.37c-5.41,2.77-13.85,28.8-13.85,28.8l9.76,6.67,9.06-13.46a28.82,28.82,0,0,0,.69-13.57C142.7,193.85,138.39,193.37,138.39,193.37Z" style="fill:#27B29B"></path><path d="M138.39,193.37c-4.37,2.24-10.72,19.66-13,26.27-.54,1.57-6.13,7.88-6.13,7.88l8.18,9.1,7.09-5.38,8.83-15.86a28.82,28.82,0,0,0,.69-13.57C142.7,193.85,138.39,193.37,138.39,193.37Z" style="fill:#27B29B"></path><path d="M138.39,193.37c-4.37,2.24-10.72,19.66-13,26.27-.54,1.57-6.13,7.88-6.13,7.88l8.18,9.1,7.09-5.38,8.83-15.86a28.82,28.82,0,0,0,.69-13.57C142.7,193.85,138.39,193.37,138.39,193.37Z" style="fill:#fff;opacity:0.6000000000000001"></path><polygon points="119.26 225.46 129.02 236.62 124.14 240 117.02 230.42 119.26 225.46" style="fill:#27B29B"></polygon><polygon points="119.26 225.46 129.02 236.62 124.14 240 117.02 230.42 119.26 225.46" style="fill:#fff;isolation:isolate;opacity:0.4"></polygon><path d="M80.76,417h43.78a33.89,33.89,0,0,0-10.18-3.55c-5.51-.88-8.39-5-12.49-5.12S94,412.23,91.13,410.4,80.76,417,80.76,417Z" style="fill:#263238"></path></g></g></svg>
