<svg xmlns="http://www.w3.org/2000/svg" width="799.9" height="621.6"><g transform="translate(-583 -243)"><path fill="#d6d6e3" d="m1383 828-4 1H587l-4-1 4-2h792l4 2Z"/><circle cx="55.4" cy="55.4" r="55.4" fill="#ed9da0" transform="translate(744 275)"/><path fill="#090814" d="M826 259c12 4 19 7 26 13 10 10 12 24 14 37 1 10 3 23-3 38-2 5-12 28-31 31-3 0-12 1-10-1 24-17 33-28 33-54-1-16-26-34-41-37a25 25 0 0 0-20 5c-13 10-12 52-25 61-6 4-2-22-6-18-7 8-2 21-1 26 6 22 13 6 19 25 7 21-40 43-42 48-3 8 34 38 21 45-18 8-32-3-40 7-4 5-2 11-10 27l-5 8c-6 0-15-45 0-87 6-17 12-35 28-48 9-7 16-10 18-18 3-12-9-17-12-35-1-13-3-32 2-43 4-11 8-21 18-30 2-2 21-16 41-16 9 0 15 12 26 16Z"/><path fill="#27B29B" d="m1208 824-150-1-14-35 52-4-9-38 104-13-100-35 9-2 160 26-9 60-12 33Z"/><path fill="#d5d6db" d="M1293 796s-10 12-2 30l-79 35-7 1-4-15 2-19v-11Z"/><path fill="#27B29B" d="m1044 788 109-20 145 23-90 33Z"/><path fill="#27B29B" d="M1044 788s-11 20 1 38l162 35s-10-16 1-37Z"/><path d="M1044 788s-11 20 1 38l162 35s-10-16 1-37Z" opacity=".1"/><path fill="#27B29B" d="m1207 861 91-39s5 1 2 5-91 37-91 37l-164-38Z"/><path d="m1207 861 91-39s5 1 2 5-91 37-91 37l-164-38ZM1203 841l39-13-39 13zM1203 844l47-18-47 18zM1203 848l54-22-54 22zM1204 852l61-28-61 28zM1204 854l67-30-67 30zM1205 857l81-35-81 35z" opacity=".1"/><path fill="#27B29B" d="M1298 791s4 2 2 4-92 29-92 29Z"/><path fill="#d5d6db" d="M1337 754s-10 12-2 30l-79 35-8 1-4-15 3-19v-11Z"/><path fill="#090814" d="m1087 746 109-20 145 23-90 33Z"/><path fill="#3a3768" d="M1087 746s-10 20 1 38l163 35s-10-16 0-37Z"/><path fill="#090814" d="M1087 746s-10 20 1 38l163 35s-10-16 0-37l-51-11Z"/><path fill="#3a3768" d="m1251 819 90-39s5 1 2 5-90 37-90 37l-164-38Z"/><path fill="#090814" d="m1251 819 90-39s5 1 2 5-90 37-90 37l-164-38Z"/><path d="M1243 786s-8 10 0 26M1246 799l39-13-39 13zM1246 802l47-18-47 18zM1247 806l53-22-53 22zM1247 810l61-28-61 28zM1248 812l67-30-67 30zM1249 815l81-35-81 35z" opacity=".1"/><path fill="#3a3768" d="M1341 749s4 2 2 4-92 29-92 29Z"/><path fill="#d5d6db" d="M1341 706s-10 22-2 40l-79 25-8 1-3-15 2-19v-11Z"/><path fill="#27B29B" d="m1091 698 110-20 145 23-91 33Z"/><path fill="#27B29B" d="M1091 698s-10 20 2 37l162 36s-10-16 0-37Z"/><path d="M1091 698s-10 20 2 37l162 36s-10-16 0-37Z" opacity=".1"/><path fill="#27B29B" d="m1255 771 91-29s5 1 1 4-90 28-90 28l-164-39Z"/><path d="m1255 771 91-29s5 1 1 4-90 28-90 28l-164-39ZM1251 751l38-13-38 13zM1251 754l46-18-46 18zM1251 758l54-22-54 22zM1251 762l62-28-62 28zM1252 764l67-30-67 30zM1253 767l81-35-81 35z" opacity=".1"/><path fill="#27B29B" d="M1346 701s3 2 1 4-92 29-92 29Z"/><path d="M1301 690s-16 2-19 5M1263 705a33 33 0 0 1 5-3 82 82 0 0 0 8-5" opacity=".1"/><path fill="#ed9da0" d="M885 617s19 49 30 44 7-26 10-32 4-49 4-49 1-31 3-38c2-5 3-34 4-39v-1l-2-36-12-3-27 10-4 22-1 8-1 4ZM736 619s-19 49-29 44-8-26-10-31-5-50-5-50-1-31-3-37-3-35-3-40l2-36 11-3 27 10 4 21 1 8 1 4Z"/><path fill="#090814" d="M729 668s-15 16-9 19 40 57 40 57 114 14 136-7 21-59 21-59-18 4-19 2l-13-12s-146-9-156 0Z"/><path fill="#ed9da0" d="m934 467-37 30h-11l-4 1-70 5-72-5-10-1-14-1-28-27s20-22 37-37l19-12h1c3-1 32-5 34-7 14-14 0-49 0-49s62-32 55 10 13 36 14 36l25 1 4 2 12 5 26 12c21 10 19 37 19 37Z"/><path d="M935 506H686l2-36s20-22 37-36l157-7 7-7 26 12c21 9 19 36 19 36s3 31 1 38Z" opacity=".1"/><path fill="#d6d6e3" d="M935 505H686l2-36s20-22 37-37l157-6 7-8 26 13c21 9 19 36 19 36s3 31 1 38Z"/><path fill="#d6d6e3" d="m877 413 5 63 4 22 3 16s9 124 7 130 1 11 1 14v16c0 4 0 5-9 4l-23-4s-33 3-45-2-34-4-34-4-33 1-43 0-17 13-24 9 8-44 13-56-6-41-6-41l15-82 3-19v-59h1a20 20 0 0 0 8-6l3 59 117 5v-67"/><path fill="#ed9da0" d="m865 829 49 1-7-36-38 4Z"/><path fill="#090814" d="M1017 742c-3 4-16 12-17 14s-17 10-25 12-32 6-37 9c-3 2-29 9-46 12a132 132 0 0 1-15 3c-7 0-89-27-89-27l16-16 1-1 36-11c13-4 28-20 28-20l25-8c3-1-8-29-8-29s48-6 67-12 61-3 69 18-1 52-5 56ZM800 812s-9 10-19 9-42 3-42 3a67 67 0 0 0-17 10c-8 6-27 3-27 3s5-40 3-45 8-14 8-14l12-2 28-8 40 14Z"/><path d="M891 789a132 132 0 0 1-14 3c-7 0-89-27-89-27l16-16 1-1 6 5c7 5 13-2 16-2s24 18 24 18 20 4 23 8 15 4 17 7v5Z" opacity=".1"/><path fill="#090814" d="M739 682s-20 1-32-4-50-16-61-8-38 15-26 46 18 33 18 33a45 45 0 0 1 10 10c4 6 39 19 47 19s24 0 46 15 41 16 41 16l36 14c9 2 47 13 56 10s15-24 15-24 4-19 2-22-14-2-17-6-23-8-23-8-22-18-24-18-9 7-16 1a363 363 0 0 0-43-27c-15-8-29-47-29-47Z"/><path d="M698 694a24 24 0 0 1 21 5c10 9 43 25 43 25M946 693s-44 7-52 16" opacity=".1"/><path fill="#090814" d="M997 830h-37c-5 2-76 0-76 0l13-2s-5-19-1-20c0 0-19-12-5-21s29-4 29-4l35-12 7-3s40 2 51 30-16 32-16 32Z"/><path fill="#f2f2f2" d="m695 469 22-20s85-5 89 24c0 0 30-35 94-27l26 21-74 33-72 25-53-24Z"/><path fill="#27B29B" d="m685 469 10 116 103 6-4-116v-2ZM931 467l-106 16v116l104-15Z"/><path fill="#fff" d="m906 495-57 7 1 19 56-6Z" opacity=".3"/><path fill="#ed9da0" d="m701 648 6 15s8 8 18 4 18-6 22-9 10-22 10-22 5-20 11-25 21-73 0-66-37 68-37 68-4 5-9 5-16-1-18 4-9 17-3 26Z"/><path fill="#27B29B" d="M825 483a36 36 0 0 1-31-8l4 116s11 11 27 8Z"/><path d="M825 483a36 36 0 0 1-31-8l4 116s11 11 27 8ZM827 470s44-14 55-12M779 464s-42-10-49-7M855 471s28-10 39-5M840 737a95 95 0 0 1 14-9c8-3 21-13 21-13M730 610s-18 15-23 17-9 12-9 12" opacity=".1"/><path fill="#ed9da0" d="m920 645-5 16s-9 8-19 4-17-6-21-9-10-22-10-22-6-20-12-25-21-73 0-67 37 69 37 69 4 5 9 5 16-1 19 4 9 16 2 25Z"/><path d="M895 612s16 13 21 14 7 11 7 11" opacity=".1"/></g></svg>