<svg xmlns="http://www.w3.org/2000/svg" width="799.946" height="621.627"><g transform="translate(-583 -242.762)"><path fill="#d6d6e3" d="M1382.946 827.859c0 .829-1.658 1.494-3.723 1.494h-792.5c-2.065 0-3.723-.665-3.723-1.494s1.658-1.494 3.723-1.494h792.5c2.065 0 3.723.666 3.723 1.494Z"/><circle cx="55.446" cy="55.446" r="55.446" fill="#ed9da0" transform="translate(744.23 275.186)"/><path fill="#090814" d="M826.051 258.796c12.213 4.292 19.2 6.749 25.6 12.915 10.812 10.417 12.6 24.338 14.255 37.274 1.3 10.119 2.975 23.2-2.958 38.151-2.022 5.1-11.833 27.829-30.608 30.7-3.687.564-12.344.712-9.849-1.13 23.097-17.049 32.952-27.34 32.142-53.617-.5-16.323-25.447-33.954-40.259-37.123a25.228 25.228 0 0 0-20.5 4.775c-12.45 10.221-11.92 52.486-25.048 61.32-5.4 3.634-1.8-21.944-5.606-17.8-7.506 8.184-2.692 20.708-1.342 25.489 6.4 22.641 13.1 5.9 19.343 25.232 6.747 20.873-39.909 43.406-41.923 48.067-3.5 8.108 34.018 38.1 20.283 44.769-17.433 8.471-31.176-2.561-39.279 6.9-4.53 5.283-2.079 10.886-10.263 27.332-2.671 5.369-4.015 8.053-5.19 7.958-5.6-.45-14.656-45.242 0-86.955 6.149-17.506 12.173-34.654 28.315-48.069 8.539-7.091 15.7-9.642 17.737-17.923 2.912-11.833-9.179-16.879-11.6-35.543-1.657-12.765-2.821-31.021 1.69-42.723 4.256-11.051 7.951-20.642 17.621-29.339 2.321-2.09 21.072-16.29 40.952-16.69 9.152-.184 15.877 12.294 26.487 16.023Z"/><path fill="#27B29B" d="m1207.948 823.793-149.511-.729-14.856-34.845 52.531-3.813-9.156-38.2 103.9-13.467-99.492-34.587 8.789-2.088 159.981 26.1-8.813 59.617-12.593 32.765Z"/><path fill="#d5d6db" d="M1293.248 796.028s-9.9 12.086-2.04 30.358l-79.062 34.29-7.587 1.59-3.494-15.288 2.337-19.294v-10.545Z"/><path fill="#27B29B" d="m1043.581 788.218 109.429-19.949 145 23.1-90.061 32.424Z"/><path fill="#27B29B" d="M1043.582 788.214s-10.234 19.39 1.559 37.3l162.274 35.163s-10.073-15.446.52-36.884Z"/><path d="M1043.582 788.214s-10.234 19.39 1.559 37.3l162.274 35.163s-10.073-15.446.52-36.884Z" opacity=".1"/><path fill="#27B29B" d="m1207.415 860.677 90.594-38.658s5.067 1.092 1.791 4.8-90.638 37.566-90.638 37.566l-164.021-38.872Z"/><path d="m1207.415 860.677 90.594-38.658s5.067 1.092 1.791 4.8-90.638 37.566-90.638 37.566l-164.021-38.872Z" opacity=".1"/><path d="m1203.1 840.592 39.18572544-13.07334704.13830043.41453829-39.18572544 13.07334704zM1203.085 844.109l47.04633884-17.8900221.15532433.40846463-47.04633884 17.8900221zM1203.348 848.255l53.99217669-22.09978409.16554003.40443232-53.99217668 22.09978408zM1203.978 851.91l61.20046285-27.64592867.17990129.39825184-61.20046285 27.64592867zM1204.464 853.689l67.279284-29.453049.175237.400292-67.279284 29.453049zM1205.48 856.676l80.69039307-34.85098982.1732736.40117983-80.69039308 34.85098983z" opacity=".1"/><path fill="#27B29B" d="M1298.009 791.368s3.975 1.6 1.642 4.08-91.716 28.344-91.716 28.344Z"/><path fill="#d5d6db" d="M1336.619 754.016s-9.9 12.082-2.036 30.358l-79.062 34.29-7.587 1.6-3.495-15.288 2.372-19.289v-10.56Z"/><path fill="#090814" d="m1086.957 746.202 109.425-19.945 145 23.1-90.061 32.424Z"/><path fill="#3a3768" d="M1086.939 746.202s-10.239 19.39 1.555 37.3l162.274 35.163s-10.068-15.459.537-36.888Z"/><path fill="#090814" d="M1086.939 746.202s-10.239 19.39 1.555 37.3l162.274 35.163s-10.068-15.459.537-36.888l-51.316-11.108Z"/><path fill="#3a3768" d="m1250.786 818.664 90.6-38.658s5.063 1.092 1.786 4.8-90.638 37.565-90.638 37.565L1088.512 783.5Z"/><path fill="#090814" d="m1250.786 818.664 90.6-38.658s5.063 1.092 1.786 4.8-90.638 37.565-90.638 37.565L1088.512 783.5Z"/><path d="M1243.36 785.685s-8.736 10.483 0 26.209M1246.474 798.585l39.18572544-13.07334704.13830043.41453829-39.18572544 13.07334704zM1246.465 802.1l47.04633884-17.8900221.15532433.40846463-47.04633884 17.8900221zM1246.722 806.239l53.99217669-22.09978409.16554003.40443232-53.99217668 22.09978408zM1247.357 809.895l61.20046285-27.64592867.17990129.39825184-61.20046285 27.64592867zM1247.836 811.668l67.279284-29.453049.175237.400292-67.279284 29.453049zM1248.855 814.656l80.69039307-34.85098982.1732736.40117983-80.69039308 34.85098983z" opacity=".1"/><path fill="#3a3768" d="M1341.384 749.356s3.971 1.6 1.642 4.076-91.7 28.344-91.7 28.344Z"/><path fill="#d5d6db" d="M1340.725 705.954s-9.9 21.7-2.04 39.968l-79.063 24.682-7.57 1.6-3.494-15.288 2.337-19.294v-10.557Z"/><path fill="#27B29B" d="m1091.076 698.144 109.429-19.949 145 23.1-90.062 32.42Z"/><path fill="#27B29B" d="M1091.076 698.14s-10.252 19.39 1.542 37.3l162.274 35.163s-10.073-15.459.533-36.884Z"/><path d="M1091.076 698.14s-10.252 19.39 1.542 37.3l162.274 35.163s-10.073-15.459.533-36.884Z" opacity=".1"/><path fill="#27B29B" d="m1254.909 770.602 90.594-29.048s5.067 1.092 1.791 4.8-90.638 27.956-90.638 27.956l-164.021-38.871Z"/><path d="m1254.909 770.602 90.594-29.048s5.067 1.092 1.791 4.8-90.638 27.956-90.638 27.956l-164.021-38.871Z" opacity=".1"/><path d="m1250.598 750.522 39.18572544-13.07334704.13830043.41453829-39.18572544 13.07334704zM1250.587 754.039l47.04633884-17.8900221.15532433.40846463-47.04633884 17.8900221zM1250.839 758.181l53.99217669-22.09978409.16554003.40443232-53.99217668 22.09978408zM1251.48 761.833l61.20046285-27.64592867.17990129.39825184-61.20046285 27.64592867zM1251.961 763.61l67.279284-29.453049.175237.400292-67.279284 29.453049zM1252.979 766.6l80.69039307-34.85098982.1732736.40117983-80.69039308 34.85098983z" opacity=".1"/><path fill="#27B29B" d="M1345.503 701.293s3.975 1.6 1.642 4.08-91.7 28.344-91.7 28.344Z"/><path d="M1300.665 689.727s-15.581 2.359-18.49 5.561M1263.201 705.072a33.44 33.44 0 0 1 5.015-3.114 81.812 81.812 0 0 0 7.426-4.538" opacity=".1"/><path fill="#ed9da0" d="M884.853 616.508s18.984 49.63 29.778 44.667 7.867-26.056 9.926-31.838 4.343-49.63 4.343-49.63 1.042-31.019 3.1-37.3c1.911-5.77 3.462-34.865 3.722-39.444v-.608l-2.047-35.982-11.589-2.891-26.873 9.933-3.722 21.254-1.452 8.3-.62 3.536ZM736.397 618.68s-18.984 49.63-29.778 44.667-7.866-26.056-9.926-31.838-4.343-49.63-4.343-49.63-1.042-31.019-3.1-37.3c-1.911-5.77-3.462-34.865-3.722-39.444v-.608l2.06-35.982 11.589-2.891 26.875 9.926 3.722 21.254 1.452 8.3.62 3.536Z"/><path fill="#090814" d="M728.953 668.111s-14.48 15.919-9.107 18.81 40.126 57.075 40.126 57.075 114.149 14.059 135.681-7.035 21.093-58.775 21.093-58.775-17.3 3.722-19.182 1.7-12.246-11.775-12.246-11.775-146.44-8.884-156.365 0Z"/><path fill="#ed9da0" d="m934.448 466.898-37.222 29.778-11.254.819-4.132.3-69.4 5.087-71.96-5.263-10.708-.782-13.648-.993-28.537-27.3s20.2-21.639 37.893-36.243c6.973-5.77 13.561-10.435 18.363-12.271l.819-.285c3.02-1.178 32.6-4.261 34.754-6.688 13.971-14.405 0-48.749 0-48.749s61.629-31.838 54.184 9.926 13.34 35.583 14.2 35.978l25.09.749 4.578 2.1 11.675 5.348 26.341 12.085c20.676 9.517 18.964 36.404 18.964 36.404Z"/><path d="M934.534 506.378H685.526v-.608l2.06-35.982s20.2-21.639 37.893-36.243l156.336-6.2 7.271-7.668 26.34 12.082c20.683 9.5 19.021 36.391 19.021 36.391s2.829 31.156.087 38.228Z" opacity=".1"/><path fill="#d6d6e3" d="M934.534 505.137H685.526v-.608l2.06-35.982s20.2-21.639 37.893-36.243l156.336-6.2 7.271-7.668 26.34 12.082c20.683 9.5 19.021 36.391 19.021 36.391s2.829 31.156.087 38.228Z"/><path fill="#d6d6e3" d="m877.409 413.027 4.157 63.39 4.454 21.093 3.4 16.13s8.685 124.076 6.2 130.28 1.241 11.167 1.762 14.467-.521 11.589-.112 15.311 0 5.372-9.5 4.045-22.756-3.635-22.756-3.635-33.5 2.482-45.077-1.65-33.5-4.144-33.5-4.144-33.091.831-43.836-.409-16.552 13.239-23.574 9.095 8.263-44.245 13.227-55.834-6.613-40.945-6.613-40.945l14.889-82.6 3.313-18.723v-58.863l.819-.285a20.422 20.422 0 0 0 7.866-5.484l3.722 59.234 116.631 4.144v-66.667"/><path fill="#ed9da0" d="m864.655 828.864 49.221 1.576-7.06-36.5-37.707 3.586Z"/><path fill="#090814" d="M1017.168 742.347c-3.313 4.132-16.13 11.576-17.371 14.058s-16.539 9.926-24.406 11.167-32.669 6.626-37.223 9.517c-3.263 2.084-29.456 8.685-46.665 12.346a132.411 132.411 0 0 1-14.132 2.544c-7.445.409-88.913-27.3-88.913-27.3l15.708-16.13.869-.3c4.442-1.5 24.964-8.437 36.354-11.738 12.83-3.722 27.719-19.021 27.719-19.021s21.912-7.445 24.815-8.276-7.445-28.947-7.445-28.947 47.558-6.6 66.17-12.2 61.629-3.524 69.483 18.4-1.6 51.748-4.963 55.88ZM800.442 812.238s-9.5 9.926-19.021 9.107-42.794 2.482-42.794 2.482a66.713 66.713 0 0 0-16.763 9.715c-7.78 6.129-26.465 3.1-26.465 3.1s4.132-39.7 2.866-44.667 8.177-13.486 8.177-13.486l11.167-2.841 28.289-7.246 40.536 14.058Z"/><path d="M891.497 789.433a132.46 132.46 0 0 1-14.132 2.544c-7.445.409-88.913-27.3-88.913-27.3l15.708-16.13.869-.3c2.482 1.749 4.516 3.251 5.968 4.392 6.837 5.385 13.437-1.65 15.919-1.65s23.981 17.783 23.981 17.783 19.852 4.554 23.165 8.685 14.889 3.313 16.949 6.2c.618.9.692 3.096.486 5.776Z" opacity=".1"/><path fill="#090814" d="M738.631 681.959s-20.075 1.154-31.652-3.722-50.04-16.13-61.207-8.226-38.054 14.889-25.647 46.33 18.2 32.26 18.2 32.26a44.793 44.793 0 0 1 9.926 10.3c3.722 5.794 38.464 19.021 47.149 19.021s23.984 0 45.486 14.889 40.948 16.548 40.948 16.548 27.3 11.167 35.8 13.648 47.335 13.226 56.442 9.926 14.889-24 14.889-24 4.132-18.611 2.06-21.5-13.648-2.072-16.949-6.2-23.165-8.685-23.165-8.685-21.453-17.792-23.934-17.792-9.082 7.023-15.919 1.65a363.155 363.155 0 0 0-42.819-27.3c-15.711-8.275-29.608-47.147-29.608-47.147Z"/><path d="M698.269 693.957a23.7 23.7 0 0 1 20.336 5.372c9.926 8.276 43.327 24.89 43.327 24.89M946.445 693.436s-44.258 6.7-52.521 15.795" opacity=".1"/><path fill="#090814" d="M997.315 830.44h-1.948c-7-.248-30.709-.993-35.275 0-5.372 1.241-76.518 0-76.518 0l13.909-2.891s-5.162-18.09-1.886-19.592c0 0-18.611-12.259-4.578-20.535s29.158-4.789 29.158-4.789l35.225-11.936 6.762-2.3s39.7 2.072 50.449 29.369-15.298 32.674-15.298 32.674Z"/><path fill="#f2f2f2" d="m695.19 469.168 21.961-19.852s85.153-5.583 88.677 23.364c0 0 30.188-34.319 93.677-26.676l26.862 21.391-74.247 32.582-72.15 25.026-53.142-23.785Z"/><path fill="#27B29B" d="m685.476 469.168 9.72 116.222 102.983 5.174-4.471-115.726-.087-1.948ZM931.085 466.687l-106.234 15.931v116.739l103.814-15Z"/><path fill="#fff" d="m906.033 495.175-57.385 6.378 1.253 19.554 56.095-6.129Z" opacity=".3"/><path fill="#ed9da0" d="m700.775 647.626 5.844 15.72s8.685 7.445 18.19 3.722 17.793-5.571 21.924-9.194 9.926-21.825 9.926-21.825 5.794-19.852 11.576-24.815 21.093-73.341 0-66.654-37.223 68.726-37.223 68.726-3.722 4.541-9.095 4.963-16.13-.831-18.2 3.722-9.146 16.541-2.942 25.635Z"/><path fill="#27B29B" d="M824.85 482.606a35.734 35.734 0 0 1-31.155-7.767l4.479 115.713s10.546 11.415 26.676 8.809Z"/><path d="M824.85 482.606a35.734 35.734 0 0 1-31.155-7.767l4.479 115.713s10.546 11.415 26.676 8.809ZM827.331 469.566s43.216-13.214 54.482-11.353M778.993 463.798s-41.888-9.926-48.886-7.11M854.578 471.215s28.9-10.6 39.345-5.559M840.025 737.023a95 95 0 0 1 14.244-8.847c7.444-3.586 21.093-12.891 21.093-12.891M730.105 610.404s-18.128 14.827-23.574 16.13-8.809 12.867-8.809 12.867" opacity=".1"/><path fill="#ed9da0" d="m920.43 645.418-5.782 15.758s-8.685 7.445-18.2 3.722-17.78-5.571-21.924-9.194-9.926-21.825-9.926-21.825-5.782-19.852-11.576-24.815-21.093-73.341 0-66.654 37.223 68.726 37.223 68.726 3.722 4.541 9.095 4.963 16.13-.831 18.2 3.722 9.09 16.54 2.89 25.597Z"/><path d="M894.94 611.766s15.97 13 20.783 14.144 7.766 11.282 7.766 11.282" opacity=".1"/></g></svg>